# xmcd
#
# Track frame offsets:
#	150
#	11664
#	35931
#	48509
#	63629
#	78969
#	89441
#	104909
#	125806
#	144558
#
# Disc length: 2128 seconds
# Revision: 0
# Processed by: cddbd v1.5.2PL0 Copyright (c) Steve Scherf et al.
# Submitted via: dBpowerAMP V12.0
#
DISCID=97084e0a
DTITLE=ZZ Top - ZZ Top's First Album LP
DYEAR=1972
DGENRE=Blues
TTITLE0=(Somebody Else Been) Shaking Your Tree
TTITLE1=Brown Sugar
TTITLE2=Squank
TTITLE3=Goin' Down to Mexico
TTITLE4=Old Man
TTITLE5=Neighbor, Neighbor
TTITLE6=Certified Blues
TTITLE7=Bedroom Thang
TTITLE8=Just Got Back From Baby's
TTITLE9=Backdoor Love Affair
EXTD=
EXTT0=
EXTT1=
EXTT2=
EXTT3=
EXTT4=
EXTT5=
EXTT6=
EXTT7=
EXTT8=
EXTT9=
PLAYORDER=
